<?xml version="1.0" encoding="UTF-8"?>
<!DOCTYPE svg PUBLIC "-//W3C//DTD SVG 1.1//EN" "http://www.w3.org/Graphics/SVG/1.1/DTD/svg11.dtd">
<svg version="1.1" xmlns="http://www.w3.org/2000/svg" xmlns:xlink="http://www.w3.org/1999/xlink" x="0" y="0" width="15" height="15" viewBox="0, 0, 15, 15">
  <g id="Layer_1">
    <path d="M1.166,0.32 C1.406,0.419 1.551,0.496 1.717,0.686 C3.641,2.615 5.564,4.543 7.487,6.472 C9.419,4.544 11.35,2.614 13.283,0.686 C13.283,0.686 13.863,-0.036 14.495,0.487 C15.04,1.1 14.313,1.704 14.313,1.704 C12.378,3.635 10.444,5.566 8.51,7.497 C10.365,9.358 12.221,11.218 14.076,13.079 C14.076,13.079 14.804,13.683 14.259,14.296 C13.627,14.819 13.046,14.097 13.046,14.097 L7.503,8.538 C5.574,10.464 3.646,12.389 1.717,14.314 C1.717,14.314 1.137,15.036 0.505,14.513 C-0.04,13.9 0.687,13.296 0.687,13.296 C2.618,11.368 4.549,9.441 6.48,7.513 L0.687,1.704 C0.687,1.704 -0.04,1.1 0.505,0.487 C0.86,0.271 0.647,0.351 1.166,0.32 z" />
  </g>
</svg>