<?xml version="1.0" encoding="UTF-8"?>
<!DOCTYPE svg PUBLIC "-//W3C//DTD SVG 1.1//EN" "http://www.w3.org/Graphics/SVG/1.1/DTD/svg11.dtd">
<svg version="1.1" xmlns="http://www.w3.org/2000/svg" xmlns:xlink="http://www.w3.org/1999/xlink" x="0" y="0" width="40" height="40" viewBox="0, 0, 40, 40">
  <g id="Layer_1">
    <path d="M20,0 L23,0 C23.66,0 24.195,0.535 24.195,1.194 L24.983,6.759 C25.63,6.971 25.306,6.838 25.95,7.166 L26.022,7.059 L30.866,3.417 C31.332,2.95 32.088,2.95 32.555,3.417 L34.676,5.538 L36.798,7.66 C37.264,8.126 37.264,8.883 36.798,9.349 L33.156,14.193 L32.998,14.301 L33.366,15.101 L38.336,15.805 C38.995,15.805 39.53,16.34 39.53,17 L39.53,20 L39.53,23.001 C39.53,23.66 38.995,24.195 38.336,24.195 L33.366,24.899 L32.998,25.699 L33.156,25.807 L36.798,30.651 C37.264,31.118 37.264,31.874 36.798,32.34 L32.555,36.583 C32.088,37.05 31.332,37.05 30.866,36.583 L26.022,32.941 L25.95,32.834 C25.306,33.162 25.63,33.03 24.983,33.241 L24.195,38.806 C24.195,39.465 23.66,40 23,40 L20,40 L17,40 C16.34,40 15.806,39.465 15.806,38.806 L15.017,33.241 C14.37,33.03 14.694,33.162 14.05,32.834 L13.979,32.941 L9.134,36.583 C8.668,37.05 7.912,37.05 7.445,36.583 L5.324,34.462 L3.202,32.34 C2.736,31.874 2.736,31.118 3.202,30.651 L6.844,25.807 L7.002,25.699 L6.634,24.899 L1.664,24.195 C1.005,24.195 0.471,23.66 0.471,23.001 L0.47,20 L0.47,17 C0.471,16.34 1.005,15.805 1.665,15.805 L6.634,15.101 L7.002,14.301 L6.844,14.193 L3.202,9.349 C2.736,8.883 2.736,8.126 3.202,7.66 L5.324,5.538 L7.445,3.417 C7.912,2.95 8.668,2.95 9.134,3.417 L13.979,7.059 L14.05,7.166 C14.694,6.838 14.37,6.971 15.017,6.759 L15.805,1.194 C15.806,0.535 16.34,0 17,0 L20,0 z M20,10.746 C14.889,10.746 10.746,14.889 10.746,20 C10.746,25.111 14.889,29.254 20,29.254 C25.111,29.254 29.254,25.111 29.254,20 C29.254,14.889 25.111,10.746 20,10.746 z"/>
  </g>
</svg>