<?xml version="1.0" encoding="UTF-8"?>
<!DOCTYPE svg PUBLIC "-//W3C//DTD SVG 1.1//EN" "http://www.w3.org/Graphics/SVG/1.1/DTD/svg11.dtd">
<svg version="1.1" xmlns="http://www.w3.org/2000/svg" xmlns:xlink="http://www.w3.org/1999/xlink" x="0" y="0" width="40" height="40" viewBox="0, 0, 40, 40">
  <g id="Layer_1">
    <g>
      <path d="M20.5,1.309 L23.379,1.309 C24.012,1.309 24.525,1.822 24.525,2.455 L25.282,7.794 C25.902,7.998 25.592,7.87 26.209,8.185 L26.278,8.082 L30.926,4.588 C31.374,4.14 32.099,4.14 32.547,4.588 L34.582,6.623 L36.618,8.659 C37.066,9.107 37.066,9.832 36.618,10.28 L33.124,14.928 L32.972,15.032 L33.325,15.799 L38.094,16.475 C38.727,16.475 39.24,16.988 39.24,17.621 L39.24,20.5 L39.24,23.379 C39.24,24.012 38.727,24.525 38.094,24.525 L33.325,25.201 L32.972,25.969 L33.124,26.072 L36.618,30.72 C37.066,31.168 37.066,31.893 36.618,32.341 L32.547,36.412 C32.099,36.86 31.374,36.86 30.926,36.412 L26.278,32.918 L26.209,32.815 C25.592,33.13 25.902,33.003 25.282,33.206 L24.525,38.545 C24.525,39.178 24.012,39.691 23.379,39.691 L20.5,39.691 L17.621,39.691 C16.988,39.691 16.475,39.178 16.475,38.545 L15.718,33.206 C15.098,33.003 15.409,33.13 14.791,32.815 L14.722,32.918 L10.074,36.412 C9.627,36.86 8.901,36.86 8.453,36.412 L6.418,34.377 L4.382,32.341 C3.934,31.893 3.934,31.168 4.382,30.72 L7.876,26.072 L8.028,25.969 L7.675,25.201 L2.906,24.525 C2.274,24.525 1.761,24.012 1.761,23.379 L1.76,20.5 L1.76,17.621 C1.761,16.988 2.274,16.475 2.906,16.475 L7.675,15.799 L8.028,15.032 L7.876,14.928 L4.382,10.28 C3.934,9.832 3.934,9.107 4.382,8.659 L6.418,6.623 L8.453,4.588 C8.901,4.14 9.627,4.14 10.074,4.588 L14.722,8.082 L14.791,8.185 C15.409,7.87 15.098,7.998 15.719,7.795 L16.475,2.455 C16.475,1.822 16.988,1.309 17.621,1.309 L20.5,1.309 z M20.5,11.621 C15.596,11.621 11.621,15.596 11.621,20.5 C11.621,25.404 15.596,29.379 20.5,29.379 C25.404,29.379 29.379,25.404 29.379,20.5 C29.379,15.596 25.404,11.621 20.5,11.621 z"/>
      <path d="M20.5,1.309 L23.379,1.309 C24.012,1.309 24.525,1.822 24.525,2.455 L25.282,7.794 C25.902,7.998 25.592,7.87 26.209,8.185 L26.278,8.082 L30.926,4.588 C31.374,4.14 32.099,4.14 32.547,4.588 L34.582,6.623 L36.618,8.659 C37.066,9.107 37.066,9.832 36.618,10.28 L33.124,14.928 L32.972,15.032 L33.325,15.799 L38.094,16.475 C38.727,16.475 39.24,16.988 39.24,17.621 L39.24,20.5 L39.24,23.379 C39.24,24.012 38.727,24.525 38.094,24.525 L33.325,25.201 L32.972,25.969 L33.124,26.072 L36.618,30.72 C37.066,31.168 37.066,31.893 36.618,32.341 L32.547,36.412 C32.099,36.86 31.374,36.86 30.926,36.412 L26.278,32.918 L26.209,32.815 C25.592,33.13 25.902,33.003 25.282,33.206 L24.525,38.545 C24.525,39.178 24.012,39.691 23.379,39.691 L20.5,39.691 L17.621,39.691 C16.988,39.691 16.475,39.178 16.475,38.545 L15.718,33.206 C15.098,33.003 15.409,33.13 14.791,32.815 L14.722,32.918 L10.074,36.412 C9.627,36.86 8.901,36.86 8.453,36.412 L6.418,34.377 L4.382,32.341 C3.934,31.893 3.934,31.168 4.382,30.72 L7.876,26.072 L8.028,25.969 L7.675,25.201 L2.906,24.525 C2.274,24.525 1.761,24.012 1.761,23.379 L1.76,20.5 L1.76,17.621 C1.761,16.988 2.274,16.475 2.906,16.475 L7.675,15.799 L8.028,15.032 L7.876,14.928 L4.382,10.28 C3.934,9.832 3.934,9.107 4.382,8.659 L6.418,6.623 L8.453,4.588 C8.901,4.14 9.627,4.14 10.074,4.588 L14.722,8.082 L14.791,8.185 C15.409,7.87 15.098,7.998 15.719,7.795 L16.475,2.455 C16.475,1.822 16.988,1.309 17.621,1.309 L20.5,1.309 z M20.5,11.621 C15.596,11.621 11.621,15.596 11.621,20.5 C11.621,25.404 15.596,29.379 20.5,29.379 C25.404,29.379 29.379,25.404 29.379,20.5 C29.379,15.596 25.404,11.621 20.5,11.621 z" stroke-width="1"/>
    </g>
  </g>
</svg>